:SAMPLES-PER-SECOND 30
:FULLY-SPECIFIED
:DEGREES
165
root  39.3798 36.4114 5.84631 69.3341 87.6092 45.7836
RightUpLeg  -64.7639 -24.1499 15.3257
RightLeg  31.9477 3.14955 1.86615
RightFoot  7.40745 1.68851 -9.88193
RightToes  0.00048216 0.542163 -0.142577
Spine  64.0914 -6.59073 10.1966
Spine1  7.82671 0.753063 -4.67292
HEad  -37.8168 -13.5382 3.01058
LeftShoulder1  9.24701 -28.2218 -22.5982
LeftArm  -54.5269 -65.3836 5.07621
LeftForeArm  -11.5553 -3.77128 -1.97968
LeftHand  -0.25398 0.0180481 5.50724
RightShoulder  4.12758 15.4891 14.8995
RightArm  -54.7823 53.1925 -13.4368
RightForeArm  -28.667 8.24661 5.56587
RightHand  0.663155 6.12547 6.24096
LeftUpLeg  -59.5938 14.9418 -10.8449
LeftLeg  35.5374 -3.80984 -2.55645
LeftFoot  1.65343 -0.643142 5.5579
LeftToes  1.06246e-005 4.65856e-005 -8.18501e-006
166
root  39.9537 36.2627 6.44917 84.5657 87.6819 57.9466
RightUpLeg  -69.1432 -24.7156 18.8751
RightLeg  34.4093 3.63692 2.4179
RightFoot  5.83991 1.7739 -11.4197
RightToes  0.00048216 0.542163 -0.142577
Spine  66.0129 -6.50995 10.0007
Spine1  5.9459 0.894483 -4.95452
HEad  -38.763 -13.7994 4.01699
LeftShoulder1  9.06569 -28.9593 -21.2895
LeftArm  -61.0875 -65.4599 12.5253
LeftForeArm  -11.8369 -3.52128 -1.39947
LeftHand  -0.25398 0.0180481 5.50724
RightShoulder  4.09065 15.9803 14.0882
RightArm  -57.7379 52.6839 -17.3745
RightForeArm  -28.9488 8.16628 5.25511
RightHand  0.634777 7.22967 5.35745
LeftUpLeg  -62.7737 14.5108 -10.704
LeftLeg  36.9527 -3.62328 -2.55484
LeftFoot  0.778205 -0.47706 4.44551
LeftToes  1.06246e-005 4.65856e-005 -8.18501e-006
167
root  40.517 36.1806 6.97258 95.9087 87.7819 66.6175
RightUpLeg  -72.5665 -24.9917 22.0655
RightLeg  36.1539 4.1804 3.01085
RightFoot  4.13212 1.66691 -12.0049
RightToes  0.00048216 0.542163 -0.142577
Spine  67.8662 -6.64826 9.91973
Spine1  4.37266 1.04858 -5.6518
HEad  -39.3273 -14.0122 4.84542
LeftShoulder1  8.50566 -29.4093 -19.0613
LeftArm  -66.7396 -64.9561 17.9971
LeftForeArm  -12.0826 -3.88479 -0.569308
LeftHand  -0.25398 0.0180481 5.50724
RightShoulder  4.01871 16.3929 13.2086
RightArm  -60.5684 51.9831 -20.5453
RightForeArm  -29.114 8.33628 4.85355
RightHand  0.619872 8.06755 4.84275
LeftUpLeg  -65.2515 14.5107 -10.5939
LeftLeg  37.8704 -3.48617 -2.53447
LeftFoot  -0.286948 -0.324207 3.3665
LeftToes  1.06246e-005 4.65856e-005 -8.18501e-006
168
root  41.0549 36.1386 7.42671 98.9225 87.9741 67.2667
RightUpLeg  -75.4709 -24.8675 25.1093
RightLeg  37.5863 4.77328 3.66146
RightFoot  2.90524 1.65579 -13.0186
RightToes  0.00048216 0.542163 -0.142577
Spine  69.4617 -6.39729 9.63666
Spine1  3.44167 1.2692 -5.82864
HEad  -39.5916 -14.1925 5.23722
LeftShoulder1  7.89518 -29.6815 -16.8543
LeftArm  -70.6043 -63.8042 21.8628
LeftForeArm  -12.6282 -4.69303 0.0844849
LeftHand  -0.25398 0.0180481 5.50724
RightShoulder  3.90946 16.6836 12.2875
RightArm  -63.3894 51.389 -23.0219
RightForeArm  -28.2014 8.7274 4.36828
RightHand  0.649626 8.94489 4.73508
LeftUpLeg  -67.2852 15.0634 -10.5902
LeftLeg  38.4243 -3.58715 -2.67494
LeftFoot  -1.35261 -0.215831 2.56711
LeftToes  1.06246e-005 4.65856e-005 -8.18501e-006
169
root  41.5616 36.1061 7.79853 102.858 88.1264 69.2481
RightUpLeg  -77.8797 -24.7506 27.7459
RightLeg  38.8907 5.09964 4.1194
RightFoot  2.42599 1.80793 -14.7369
RightToes  0.00048216 0.542163 -0.142577
Spine  70.7158 -6.07085 9.23629
Spine1  2.93922 1.36413 -5.64796
HEad  -39.7032 -14.1921 5.38185
LeftShoulder1  7.41696 -29.8532 -15.17
LeftArm  -72.6523 -62.1996 24.3641
LeftForeArm  -13.8226 -5.98438 0.403627
LeftHand  -0.25398 0.0180481 5.50724
RightShoulder  3.74585 16.6466 11.4289
RightArm  -66.0552 51.1829 -24.66
RightForeArm  -26.6348 9.4696 3.94201
RightHand  0.676639 10.1553 4.50611
LeftUpLeg  -68.8918 15.5137 -10.6364
LeftLeg  38.8261 -3.75597 -2.86161
LeftFoot  -1.99489 -0.158968 2.0949
LeftToes  1.06246e-005 4.65856e-005 -8.18501e-006
170
root  42.0378 36.0897 8.08566 112.073 88.1302 76.8245
RightUpLeg  -79.6417 -24.7206 29.6065
RightLeg  39.8227 5.17704 4.3296
RightFoot  1.82388 1.86235 -15.9069
RightToes  0.00048216 0.542163 -0.142577
Spine  71.644 -5.98408 8.95245
Spine1  2.55844 1.30624 -5.56767
HEad  -39.8794 -13.9368 5.54472
LeftShoulder1  7.10176 -29.9787 -14.0549
LeftArm  -74.3272 -60.6737 25.7259
LeftForeArm  -15.0296 -7.87137 0.762242
LeftHand  -0.25398 0.0180481 5.50724
RightShoulder  3.57971 16.2852 10.8794
RightArm  -68.5142 51.2515 -25.7316
RightForeArm  -25.8895 10.6533 3.70514
RightHand  0.623709 11.2869 3.77743
LeftUpLeg  -70.0892 15.5958 -10.7347
LeftLeg  39.0491 -3.78911 -2.91496
LeftFoot  -2.38094 -0.124536 1.77337
LeftToes  1.06246e-005 4.65856e-005 -8.18501e-006
171
root  42.4749 36.1 8.30134 115.787 87.9867 78.7853
RightUpLeg  -80.907 -24.2765 30.6797
RightLeg  40.0894 5.13385 4.33313
RightFoot  0.568034 1.6866 -15.9994
RightToes  0.00048216 0.542163 -0.142577
Spine  72.0428 -5.85636 8.6448
Spine1  2.56104 1.2588 -5.62725
HEad  -40.2207 -13.4122 5.65671
LeftShoulder1  6.88387 -29.9836 -13.3431
LeftArm  -77.1041 -59.4936 26.6939
LeftForeArm  -14.7477 -10.224 1.34375
LeftHand  -0.25398 0.0180481 5.50724
RightShoulder  3.41935 15.8076 10.458
RightArm  -71.0436 51.327 -26.4694
RightForeArm  -25.7737 12.4051 3.63855
RightHand  0.464939 11.6029 2.60784
LeftUpLeg  -71.1718 15.6179 -11.0742
LeftLeg  38.8769 -3.71924 -2.83578
LeftFoot  -2.96695 -0.0824827 1.36863
LeftToes  1.06246e-005 4.65856e-005 -8.18501e-006
